<svg width="196" height="43" viewBox="0 0 196 43" fill="none" xmlns="http://www.w3.org/2000/svg">
<path d="M50.1387 18.2511C48.9834 18.2511 47.937 18.1172 46.9995 17.8493C46.0786 17.5647 45.2582 17.1629 44.5383 16.6439C43.8184 16.1081 43.1738 15.4803 42.6046 14.7603L45.1913 11.822C46.0284 12.9438 46.8655 13.6972 47.7026 14.0823C48.5565 14.4673 49.4355 14.6599 50.3396 14.6599C50.7916 14.6599 51.2018 14.6013 51.5701 14.4841C51.9385 14.3669 52.2231 14.1995 52.424 13.9818C52.6249 13.7474 52.7254 13.4628 52.7254 13.128C52.7254 12.8768 52.6584 12.6508 52.5245 12.4499C52.4073 12.249 52.2398 12.0732 52.0222 11.9225C51.8045 11.7718 51.545 11.6379 51.2437 11.5207C50.9423 11.3867 50.6242 11.2779 50.2893 11.1942C49.9545 11.0937 49.6113 11.01 49.2597 10.9431C48.2886 10.7254 47.4431 10.4575 46.7232 10.1394C46.0033 9.82133 45.4006 9.43625 44.915 8.9842C44.4462 8.51542 44.0946 7.98803 43.8602 7.40205C43.6259 6.79932 43.5087 6.12962 43.5087 5.39295C43.5087 4.60606 43.6845 3.88614 44.036 3.23318C44.4044 2.56348 44.8899 1.99424 45.4926 1.52545C46.1121 1.03992 46.8237 0.67159 47.6273 0.420454C48.4309 0.152575 49.2681 0.0186361 50.1387 0.0186361C51.2939 0.0186361 52.2817 0.144204 53.1021 0.39534C53.9392 0.629734 54.6507 0.972954 55.2367 1.425C55.8395 1.87705 56.3501 2.42117 56.7687 3.05739L54.1317 5.59386C53.7801 5.15856 53.3951 4.7986 52.9765 4.51398C52.5747 4.22936 52.1394 4.0117 51.6706 3.86102C51.2185 3.71034 50.7498 3.635 50.2642 3.635C49.762 3.635 49.3267 3.70197 48.9583 3.83591C48.6067 3.95311 48.3305 4.1289 48.1296 4.36329C47.9287 4.58095 47.8282 4.84883 47.8282 5.16693C47.8282 5.45155 47.9119 5.69432 48.0793 5.89523C48.2468 6.09614 48.4728 6.2803 48.7574 6.44773C49.042 6.59841 49.3685 6.73235 49.7368 6.84954C50.1052 6.95 50.4902 7.03371 50.8921 7.10068C51.8129 7.28485 52.6417 7.52761 53.3783 7.82898C54.1317 8.13034 54.7763 8.49867 55.3121 8.93398C55.8646 9.36928 56.2831 9.8883 56.5678 10.491C56.8691 11.077 57.0198 11.7634 57.0198 12.5503C57.0198 13.7725 56.7184 14.8106 56.1157 15.6644C55.5297 16.5016 54.7177 17.1461 53.6797 17.5982C52.6584 18.0335 51.4781 18.2511 50.1387 18.2511ZM67.6376 18.1507C66.181 18.1507 64.8834 17.8577 63.745 17.2717C62.6065 16.669 61.7107 15.8486 61.0578 14.8106C60.4216 13.7725 60.1035 12.5838 60.1035 11.2444V0.420454H64.423V11.0184C64.423 11.6546 64.5653 12.2322 64.85 12.7512C65.1346 13.2535 65.5196 13.6553 66.0052 13.9567C66.4907 14.2413 67.0348 14.3836 67.6376 14.3836C68.2738 14.3836 68.8346 14.2413 69.3202 13.9567C69.8225 13.6553 70.2243 13.2535 70.5256 12.7512C70.827 12.2322 70.9777 11.6546 70.9777 11.0184V0.420454H75.1465V11.2444C75.1465 12.5838 74.8201 13.7725 74.1671 14.8106C73.5309 15.8486 72.6436 16.669 71.5051 17.2717C70.3666 17.8577 69.0774 18.1507 67.6376 18.1507ZM79.4321 18V0.420454H87.1923C88.3977 0.420454 89.419 0.596249 90.2561 0.947841C91.0932 1.28269 91.7211 1.77659 92.1396 2.42955C92.5749 3.06576 92.7926 3.83591 92.7926 4.74C92.7926 5.74455 92.5415 6.59004 92.0392 7.27648C91.5537 7.96292 90.8421 8.42333 89.9045 8.65773L89.8543 8.18057C90.6412 8.34799 91.3193 8.64098 91.8885 9.05955C92.4745 9.47811 92.9265 9.99712 93.2446 10.6166C93.5628 11.2193 93.7218 11.9058 93.7218 12.6759C93.7218 13.5633 93.5711 14.3418 93.2698 15.0115C92.9684 15.6644 92.5331 16.2169 91.9638 16.669C91.3946 17.121 90.7249 17.4559 89.9548 17.6735C89.2013 17.8912 88.3642 18 87.4434 18H79.4321ZM83.4503 14.4339H87.2927C87.7615 14.4339 88.1549 14.3585 88.4731 14.2078C88.8079 14.0572 89.0674 13.8395 89.2516 13.5549C89.4357 13.2535 89.5278 12.8936 89.5278 12.475C89.5278 12.0899 89.4274 11.7634 89.2265 11.4956C89.0423 11.2277 88.7744 11.0268 88.4228 10.8928C88.0712 10.7422 87.6527 10.6668 87.1671 10.6668H83.4503V14.4339ZM83.4503 7.47739H86.5895C87.0248 7.47739 87.3932 7.41042 87.6945 7.27648C88.0126 7.1258 88.247 6.92489 88.3977 6.67375C88.5651 6.40587 88.6488 6.08777 88.6488 5.71943C88.6488 5.18367 88.4647 4.76511 88.0964 4.46375C87.728 4.14564 87.1755 3.98659 86.4388 3.98659H83.4503V7.47739ZM97.0411 18V0.420454H100.858L107.262 10.8426L104.525 10.8175L111.004 0.420454H114.671V18H110.527V12.5252C110.527 11.0184 110.561 9.66227 110.628 8.45682C110.711 7.25136 110.845 6.05428 111.029 4.86557L111.507 6.17148L106.635 13.7307H104.977L100.205 6.2217L100.683 4.86557C100.867 5.98731 100.992 7.14254 101.059 8.33125C101.143 9.50322 101.185 10.9012 101.185 12.5252V18H97.0411ZM118.738 18V14.4087H121.701V4.0117H118.738V0.420454H128.959V4.0117H125.97V14.4087H128.959V18H118.738ZM136.837 18V4.1875H131.613V0.420454H146.455V4.1875H141.106V18H136.837ZM157.52 18V0.420454H161.337L167.741 10.8426L165.004 10.8175L171.483 0.420454H175.15V18H171.006V12.5252C171.006 11.0184 171.039 9.66227 171.106 8.45682C171.19 7.25136 171.324 6.05428 171.508 4.86557L171.985 6.17148L167.113 13.7307H165.456L160.684 6.2217L161.161 4.86557C161.345 5.98731 161.471 7.14254 161.538 8.33125C161.622 9.50322 161.664 10.9012 161.664 12.5252V18H157.52ZM184.113 18V9.23534L184.289 10.4659L177.182 0.420454H182.029L187.454 8.20568L185.244 8.13034L190.141 0.420454H194.837L188.031 10.7422L188.408 9.03443V18H184.113Z" fill="#A90D0E"/>
<path d="M44.3123 42.375V24.7955H48.1296L54.5335 35.2176L51.7962 35.1925L58.2755 24.7955H61.9421V42.375H57.7983V36.9002C57.7983 35.3934 57.8318 34.0373 57.8988 32.8318C57.9825 31.6264 58.1164 30.4293 58.3006 29.2406L58.7778 30.5465L53.9057 38.1057H52.2482L47.4766 30.5967L47.9538 29.2406C48.1379 30.3623 48.2635 31.5175 48.3305 32.7062C48.4142 33.8782 48.456 35.2762 48.456 36.9002V42.375H44.3123ZM74.3716 42.6261C73.0322 42.6261 71.81 42.4001 70.705 41.9481C69.6 41.496 68.6373 40.8598 67.8169 40.0394C66.9965 39.2191 66.3603 38.2564 65.9083 37.1514C65.4562 36.0464 65.2302 34.8325 65.2302 33.5099C65.2302 32.1872 65.4562 30.9734 65.9083 29.8684C66.3603 28.7634 66.9965 27.8007 67.8169 26.9803C68.6373 26.16 69.6 25.5237 70.705 25.0717C71.81 24.6197 73.0238 24.3936 74.3464 24.3936C75.6691 24.3936 76.8829 24.6197 77.9879 25.0717C79.0929 25.5237 80.0556 26.16 80.876 26.9803C81.6964 27.8007 82.3242 28.7634 82.7595 29.8684C83.2116 30.9734 83.4376 32.1872 83.4376 33.5099C83.4376 34.8158 83.2116 36.0296 82.7595 37.1514C82.3242 38.2564 81.6964 39.2191 80.876 40.0394C80.0556 40.8598 79.0929 41.496 77.9879 41.9481C76.8829 42.4001 75.6775 42.6261 74.3716 42.6261ZM74.3464 38.608C75.0329 38.608 75.6607 38.4824 76.23 38.2312C76.8159 37.9801 77.3182 37.6285 77.7368 37.1765C78.1721 36.7077 78.5069 36.1636 78.7413 35.5441C78.9757 34.9246 79.0929 34.2466 79.0929 33.5099C79.0929 32.7732 78.9757 32.0952 78.7413 31.4757C78.5069 30.8562 78.1721 30.3205 77.7368 29.8684C77.3182 29.3996 76.8159 29.0397 76.23 28.7885C75.6607 28.5374 75.0329 28.4118 74.3464 28.4118C73.66 28.4118 73.0238 28.5374 72.4378 28.7885C71.8686 29.0397 71.3663 29.3996 70.931 29.8684C70.4957 30.3205 70.1608 30.8562 69.9264 31.4757C69.7088 32.0952 69.6 32.7732 69.6 33.5099C69.6 34.2466 69.7088 34.933 69.9264 35.5692C70.1608 36.1887 70.4957 36.7244 70.931 37.1765C71.3663 37.6285 71.8686 37.9801 72.4378 38.2312C73.0238 38.4824 73.66 38.608 74.3464 38.608ZM86.7406 42.375V24.7955H94.6514C95.7731 24.7955 96.7861 25.0382 97.6902 25.5238C98.611 26.0093 99.3309 26.679 99.8499 27.5328C100.369 28.37 100.628 29.3243 100.628 30.3958C100.628 31.5008 100.369 32.497 99.8499 33.3843C99.3309 34.2549 98.6194 34.9414 97.7153 35.4436C96.8112 35.9459 95.7899 36.197 94.6514 36.197H90.809V42.375H86.7406ZM96.4847 42.375L92.0145 34.4391L96.3842 33.8112L101.357 42.375H96.4847ZM90.809 32.9323H94.2747C94.71 32.9323 95.0867 32.8402 95.4048 32.656C95.7397 32.4551 95.9908 32.1789 96.1582 31.8273C96.3424 31.4757 96.4345 31.0739 96.4345 30.6218C96.4345 30.1698 96.334 29.7763 96.1331 29.4415C95.9322 29.0899 95.6392 28.822 95.2541 28.6378C94.8858 28.4537 94.4337 28.3616 93.898 28.3616H90.809V32.9323ZM107.701 42.375V28.5625H102.477V24.7955H117.319V28.5625H111.97V42.375H107.701ZM127.742 42.6261C126.335 42.6261 125.063 42.4001 123.924 41.9481C122.786 41.496 121.806 40.8598 120.986 40.0394C120.166 39.2191 119.538 38.2564 119.102 37.1514C118.667 36.0296 118.45 34.8158 118.45 33.5099C118.45 32.204 118.676 31.0069 119.128 29.9186C119.596 28.8136 120.258 27.8509 121.112 27.0306C121.965 26.2102 122.97 25.574 124.125 25.1219C125.297 24.6699 126.57 24.4439 127.942 24.4439C128.914 24.4439 129.826 24.5694 130.68 24.8206C131.55 25.0717 132.337 25.4149 133.041 25.8502C133.744 26.2855 134.338 26.7878 134.824 27.357L132.237 30.0944C131.818 29.6926 131.383 29.3578 130.931 29.0899C130.496 28.822 130.027 28.6127 129.525 28.462C129.022 28.2946 128.487 28.2109 127.917 28.2109C127.181 28.2109 126.503 28.3448 125.883 28.6127C125.28 28.8806 124.745 29.2573 124.276 29.7428C123.824 30.2116 123.472 30.7725 123.221 31.4255C122.97 32.0617 122.844 32.7565 122.844 33.5099C122.844 34.2633 122.978 34.9665 123.246 35.6194C123.514 36.2724 123.882 36.8416 124.351 37.3272C124.82 37.7959 125.373 38.1727 126.009 38.4573C126.662 38.7252 127.356 38.8591 128.093 38.8591C128.612 38.8591 129.098 38.7754 129.55 38.608C130.019 38.4405 130.42 38.2145 130.755 37.9299C131.09 37.6453 131.358 37.3104 131.559 36.9253C131.76 36.5235 131.86 36.0966 131.86 35.6445V34.9916L132.413 35.8455H127.566V32.5053H135.828C135.862 32.6895 135.887 32.9406 135.903 33.2587C135.92 33.5769 135.929 33.8866 135.929 34.188C135.945 34.4893 135.954 34.7153 135.954 34.866C135.954 36.0045 135.744 37.0509 135.326 38.0052C134.924 38.9428 134.355 39.7548 133.618 40.4412C132.881 41.1277 132.011 41.6634 131.006 42.0485C130.002 42.4336 128.914 42.6261 127.742 42.6261ZM136.744 42.375L143.7 24.7955H147.317L154.223 42.375H149.903L146.588 33.4597C146.454 33.1081 146.32 32.7314 146.187 32.3295C146.053 31.9277 145.919 31.5175 145.785 31.099C145.651 30.6637 145.517 30.2451 145.383 29.8433C145.266 29.4247 145.165 29.0397 145.082 28.6881L145.835 28.663C145.734 29.0815 145.617 29.4917 145.483 29.8935C145.366 30.2953 145.241 30.6972 145.107 31.099C144.989 31.4841 144.856 31.8775 144.705 32.2793C144.554 32.6644 144.412 33.0662 144.278 33.4848L140.963 42.375H136.744ZM140.059 39.0098L141.39 35.7952H149.476L150.782 39.0098H140.059ZM164.088 42.6261C162.681 42.6261 161.409 42.4001 160.27 41.9481C159.132 41.496 158.152 40.8598 157.332 40.0394C156.512 39.2191 155.884 38.2564 155.449 37.1514C155.013 36.0296 154.796 34.8158 154.796 33.5099C154.796 32.204 155.022 31.0069 155.474 29.9186C155.942 28.8136 156.604 27.8509 157.458 27.0306C158.312 26.2102 159.316 25.574 160.471 25.1219C161.643 24.6699 162.916 24.4439 164.289 24.4439C165.26 24.4439 166.172 24.5694 167.026 24.8206C167.897 25.0717 168.683 25.4149 169.387 25.8502C170.09 26.2855 170.684 26.7878 171.17 27.357L168.583 30.0944C168.164 29.6926 167.729 29.3578 167.277 29.0899C166.842 28.822 166.373 28.6127 165.871 28.462C165.368 28.2946 164.833 28.2109 164.263 28.2109C163.527 28.2109 162.849 28.3448 162.229 28.6127C161.627 28.8806 161.091 29.2573 160.622 29.7428C160.17 30.2116 159.818 30.7725 159.567 31.4255C159.316 32.0617 159.191 32.7565 159.191 33.5099C159.191 34.2633 159.324 34.9665 159.592 35.6194C159.86 36.2724 160.229 36.8416 160.697 37.3272C161.166 37.7959 161.719 38.1727 162.355 38.4573C163.008 38.7252 163.703 38.8591 164.439 38.8591C164.958 38.8591 165.444 38.7754 165.896 38.608C166.365 38.4405 166.766 38.2145 167.101 37.9299C167.436 37.6453 167.704 37.3104 167.905 36.9253C168.106 36.5235 168.206 36.0966 168.206 35.6445V34.9916L168.759 35.8455H163.912V32.5053H172.174C172.208 32.6895 172.233 32.9406 172.25 33.2587C172.266 33.5769 172.275 33.8866 172.275 34.188C172.291 34.4893 172.3 34.7153 172.3 34.866C172.3 36.0045 172.091 37.0509 171.672 38.0052C171.27 38.9428 170.701 39.7548 169.964 40.4412C169.228 41.1277 168.357 41.6634 167.352 42.0485C166.348 42.4336 165.26 42.6261 164.088 42.6261ZM175.57 42.375V24.7955H187.826V28.4369H179.714V38.7335H188.077V42.375H175.57ZM177.579 35.1674V31.7017H186.696V35.1674H177.579Z" fill="#CA7A1D"/>
<path d="M7.43913 0H19.8377V11.1417C19.8377 12.1267 20.2295 13.0713 20.9271 13.7678C21.6247 14.4643 22.5707 14.8556 23.5572 14.8556H34.7159V37.1389C34.7159 37.7956 34.4547 38.4253 33.9896 38.8897C33.5246 39.354 32.8939 39.6148 32.2362 39.6148H29.5408C29.3568 39.0902 29.0567 38.6138 28.6629 38.2209L20.9139 30.4861C22.1024 28.2148 22.5558 25.6313 22.2114 23.0919C21.867 20.5524 20.7418 18.1823 18.9911 16.3085C17.2404 14.4346 14.9504 13.1494 12.4371 12.6302C9.92384 12.111 7.31112 12.3833 4.95942 13.4096V2.47593C4.95942 1.81927 5.22068 1.18951 5.68571 0.725182C6.15075 0.260856 6.78147 0 7.43913 0ZM22.3174 0L34.7159 12.3796H23.5572C23.2284 12.3796 22.913 12.2492 22.6805 12.017C22.448 11.7849 22.3174 11.47 22.3174 11.1417V0ZM19.8377 24.7593C19.8377 27.047 19.059 29.1541 17.7547 30.8327L26.9073 39.9739C27.0257 40.0881 27.1202 40.2247 27.1852 40.3757C27.2501 40.5267 27.2843 40.6892 27.2858 40.8535C27.2872 41.0179 27.2558 41.1809 27.1935 41.3331C27.1312 41.4852 27.0391 41.6234 26.9227 41.7397C26.8063 41.8559 26.6678 41.9478 26.5155 42.0101C26.3631 42.0723 26.1998 42.1037 26.0352 42.1022C25.8706 42.1008 25.7079 42.0666 25.5566 42.0018C25.4053 41.9369 25.2685 41.8426 25.1542 41.7243L16.0016 32.5832C14.2311 33.9557 12.0472 34.6889 9.80589 34.6634C7.56459 34.638 5.39801 33.8552 3.65928 32.4429C1.92054 31.0305 0.71218 29.0717 0.231132 26.8859C-0.249916 24.7 0.0247164 22.4159 1.01027 20.4058C1.99582 18.3957 3.63418 16.7782 5.65832 15.8168C7.68245 14.8555 9.97301 14.6071 12.1567 15.112C14.3403 15.617 16.2883 16.8455 17.6832 18.5974C19.078 20.3493 19.8374 22.5212 19.8377 24.7593ZM9.91884 32.1871C11.8918 32.1871 13.784 31.4045 15.1791 30.0115C16.5742 28.6185 17.358 26.7292 17.358 24.7593C17.358 22.7893 16.5742 20.9 15.1791 19.507C13.784 18.1141 11.8918 17.3315 9.91884 17.3315C7.94586 17.3315 6.05369 18.1141 4.65859 19.507C3.26348 20.9 2.47972 22.7893 2.47972 24.7593C2.47972 26.7292 3.26348 28.6185 4.65859 30.0115C6.05369 31.4045 7.94586 32.1871 9.91884 32.1871Z" fill="#A90D0E"/>
</svg>
