<svg width="36" height="36" viewBox="0 0 36 36" fill="none" xmlns="http://www.w3.org/2000/svg">
<path d="M28.5816 21.993L28.5829 21.9952C29.0882 22.8244 29.1775 23.8034 28.842 24.6937C28.5037 25.5916 27.8055 26.2737 26.9038 26.57L26.9011 26.5709C24.0441 27.5281 21.0379 28 18.0299 28C15.0219 28 12.0165 27.5281 9.16095 26.5566L9.15995 26.5563C8.1729 26.2228 7.44683 25.5422 7.14563 24.7014L7.14564 24.7014L7.1442 24.6975C6.82718 23.8352 6.93252 22.8826 7.46349 21.9925C7.46373 21.9921 7.46398 21.9917 7.46423 21.9913L8.97775 19.4888L8.97781 19.4888L8.9818 19.4819C9.16998 19.1594 9.33395 18.7156 9.45052 18.2868C9.567 17.8584 9.64991 17.3944 9.64991 17.025V13.23C9.64991 9.94904 11.559 7.10237 14.3226 5.72767L14.4609 5.65886L14.5363 5.52402C15.2292 4.28483 16.5336 3.5 17.9849 3.5C19.4555 3.5 20.7288 4.25874 21.4196 5.48103L21.4972 5.61829L21.6395 5.68622C24.4581 7.03178 26.4099 9.90582 26.4099 13.23V17.025C26.4099 17.3944 26.4928 17.8583 26.6091 18.2881C26.7258 18.7191 26.8892 19.1642 27.0751 19.4918L27.0749 19.4919L27.0816 19.503L28.5816 21.993Z" stroke="black"/>
<path d="M15.1625 31.3002C14.9505 31.1015 14.7632 30.8658 14.6058 30.6091C14.8615 30.6409 15.1266 30.671 15.3929 30.6932C16.2594 30.7692 17.1438 30.815 18.0305 30.815C18.9028 30.815 19.7729 30.7691 20.625 30.693L20.625 30.693L20.6279 30.6927C20.7138 30.6846 20.8069 30.6771 20.9038 30.6694C21.0617 30.6567 21.2298 30.6433 21.3931 30.6245C20.6801 31.7521 19.4248 32.5 18.0005 32.5C16.9466 32.5 15.9079 32.0719 15.1803 31.3178L15.1716 31.3088L15.1625 31.3002Z" stroke="black"/>
</svg>
