<?xml version="1.0" encoding="UTF-8"?>
<svg id="Layer_2" data-name="Layer 2" xmlns="http://www.w3.org/2000/svg" viewBox="0 0 383.28 383.85">
  <defs>
    <style>
      .cls-1 {
        fill: #fff;
      }
    </style>
  </defs>
  <g id="Layer_1-2" data-name="Layer 1">
    <path class="cls-1" d="m199.13,383.85c-6.37-3.03-9.8-4.88-16.75-4.1-4.42.5-8.85.89-13.14-.6-9.23-3.2-10.63-10.88-15.33-18.18-15.1,8.65-32.72.66-36.59-16.06-21.9,11.58-45.05-9.32-34.1-32.15-4.87-2.36-9.37-4.82-12.59-9.34-3.31-4.65-3.16-9.96-5.33-14.96-2.61-6.02-8.55-11.59-12.38-16.91-2.56-3.55-5.43-10.6-10.74-10.17-3.04,11.13-11.02,7.33-20.44,5.64-7.22-1.3-21.01-.54-21.66-9.78-.76-10.79,4.23-24.82,6.12-35.45,2.16-12.16,4.32-24.32,6.47-36.48,2.06-11.64,4.13-23.28,6.18-34.92,1.07-6.06.93-23.69,7.08-27.4,5.69-3.43,20.37,2.12,26.64,3.25,11.18,2.01,12.37,4.55,10.62,15.52,6.42.83,17.22,5.14,23.59,1.98,5.79-2.87,3.09-15.31,3.11-20.89.05-18.7.19-37.39-.04-56.09-.17-13.82.26-28.16,14.98-34.45,7.16-3.06,15.13-1.73,22.68-1.67,9.4.07,18.81-.16,28.21-.16,0-9.4-1.37-19.99,7.09-26.34,8.18-6.14,21.25-3.63,30.79-3.63,8.94,0,20.51-2.06,27.87,4.36,7.46,6.52,6.09,16.69,6.09,25.6,9,0,18.01,0,27.01,0,8.09,0,17.2-1.25,24.82,2.11,14.43,6.36,14.03,20.83,14.05,34.29.02,18.71.02,37.43-.02,56.14,0,4.78-2.59,17.02,1.82,20.16,5.97,4.26,18.37-.74,24.86-1.29-1.13-6.99-2.79-11.68,4.64-14.55,6.84-2.64,15.79-2.95,23-4.06,5.93-.91,9.87-2.04,12.51,3.87,3.11,6.95,3.07,16.84,4.38,24.29,3.04,17.32,6.09,34.64,9.14,51.97,1.53,8.66,3.05,17.32,4.58,25.98,1.44,8.14,1.8,18.09,4.92,25.7v5.24c-8.27,4.77-16.59,5.89-26,7.51-8.35,1.44-13.44,3.1-16.11-6.13-5.92-1.45-10.78,10.1-13.47,13.79-4.81,6.58-8.88,11.05-11.26,18.81-4.69,15.26-13.7,19.03-28.98,19.03-1.27,15.4-14.21,26.25-29.69,23.31-1.16,14.31-12.17,26.26-30.05,23.45-.8,12.89-8.52,19.1-19.62,23.76h-8.98Zm-4.4-180.94c-6.3,1.32-12.99,2.63-19.62,4.18-6.16,1.45-11.22,15.74-15.7,20.25-4.73,4.76-10.67,7.87-17.39,8.58-12.02,1.27-27.09-4.65-28.16-18.3-1.04-13.22,13.95-28.31,20.89-38.71,10.56-15.82,23.89-20.4,40.83-27.7-16.59-9.96-37.11-3.23-54.83-.54-10.08,1.53-20.15,3.34-30.25,4.72-10.38,1.41-19.34-.15-29.59-1.56-5.63,31.94-11.19,63.5-16.77,95.12,6.01,1.71,10.29,1.51,13.7,7.29,3.87,6.55,7.4,12.74,12,19.02,11.84-9.89,27.49-29.98,44.41-29.23,18.66.83,21.95,17,22.62,32.11,11.53,2.96,17.81,10.99,18.94,23.12,16.6.97,22.46,5.22,27.34,19.72,7.74-3.53,15.7-5.13,23.68-1.26,8.53,4.13,9.99,10.79,13.07,18.74,7.25,18.68,34.48,5.69,22.67-9.47-5.74-7.36-17.89-12.54-25.63-17.71-3.88-2.59-16.82-12.95-4.68-15.53,6.48-1.38,18.92,10.43,24.06,13.83,7.27,4.81,17.18,14.57,26.15,15.36,8.14.71,14.45-7.31,12.22-14.99-2.23-7.7-12.67-11.97-18.81-16.03-7.46-4.94-22.46-11.18-27.3-18.74-3.75-5.85,1.05-10.44,7.14-8.81,8.43,2.26,18.1,11.68,25.33,16.46,8.51,5.63,17.39,13.36,26.75,17.41,8.55,3.69,18.66-2.42,16.97-12.38-1.39-8.23-11.92-12.56-18.15-16.68-9.62-6.37-19.23-12.74-28.85-19.1-8.69-5.75-17.32-12.79-27.11-16.45-18.15-6.79-26.49-16.17-35.92-32.73Zm127.67-49.11c-1.49.24-2.69.45-3.89.63-10.14,1.48-18,1.95-28.25.49-10.05-1.42-20.07-3-30.08-4.61-20.83-3.35-36.9-6.24-56.73,2.3-15.55,6.7-35.02,11.72-48.87,21.5-6.6,4.66-10.78,13.01-15.17,19.6-3.55,5.33-12.38,14.54-13.26,20.79-.94,6.66,6.35,9.48,12.1,9.52,6.9.04,11.63-3.78,15.64-8.96,4.43-5.72,7.62-15.08,14.09-18.61,6.38-3.48,16.49-3.74,23.52-5.19,5.08-1.04,9.9-3.02,13.44,1.58,3.35,4.35,3.72,11.25,7.09,16,7.49,10.57,20.14,16.92,33.1,16.61,7.77-.19,15-2.93,21.68-6.75,4.68-2.68,12.32-10.54,17.46-5.47,9.58,9.45-22.32,21.63-28.32,22.83,18.42,14.07,38.82,25.58,57.52,39.33,4.38-6.11,7.85-12.78,12.01-19,3.65-5.46,7.44-6.08,13.66-7.38-5.61-31.86-11.13-63.23-16.76-95.22Zm-58.9-63.56c10.8-.77,17.77-7.99,17.97-18.25.14-7.35,2.41-20.13-3.55-26-6.38-6.28-19.77-3.56-27.77-3.56-25.07,0-50.13,0-75.2,0-13.23,0-26.46,0-39.69,0-8.42,0-23.23-3.09-29.85,3.59-6.06,6.11-4.96,22.08-3.18,29.91,1.86,8.2,8.98,14.36,17.56,14.09,0-13.76,7.87-11.65,19.77-11.64,11.5,0,16.13-.5,16.13,11.81h71.89c0-12.91,5.76-11.8,17.53-11.8,12.14,0,18.38-1.65,18.38,11.85Zm17.72,50.94v-43.62c-5.77,1.92-11.46,3.82-17.72,5.91,0,12.56-7.29,10.86-18.07,10.86-11.51,0-17.84,1.27-17.84-11.7h-71.89c0,13.16-6.36,11.69-18.07,11.69-10.81,0-17.84,1.66-17.84-10.83-6.44-2.16-12.13-4.07-17.82-5.98v43.76c16.07-2.45,32.27-5.85,48.46-7.32,7.19-.65,14.11.05,21.03,2.14,6.29,1.9,13.45,7.38,20.11,7.39,5.83.01,12.08-4.54,17.59-6.46,7.09-2.47,14.4-3.67,21.91-3.24,16.69.94,33.62,4.88,50.14,7.39Zm50.75-2.78c6.94,39.39,13.82,78.4,20.76,117.79,5.92-1.04,11.49-2.02,17.54-3.08-6.96-39.51-13.85-78.64-20.76-117.86-5.9,1.06-11.39,2.05-17.54,3.15Zm-298.08-3.13c-.37,1.9-.71,3.47-.99,5.05-4.1,23.27-8.17,46.55-12.28,69.82-2.33,13.23-4.75,26.44-7.02,39.67-.19,1.11.32,3.31.85,3.43,5.28,1.14,10.63,1.95,16.13,2.89,6.96-39.54,13.83-78.53,20.73-117.73-6.08-1.09-11.58-2.08-17.44-3.13Zm97.55,154.25c-2.38.92-5.17,1.32-7.07,2.85-6.41,5.16-12.76,10.4-19.03,15.71-4.05,3.43-10.27,7.13-12.36,12.23-3.65,8.92,5.29,18.61,14.4,15.84,10.14-3.08,21.7-16.42,29.49-23.48,8.52-7.71,8.23-21.37-5.44-23.16Zm-53-.82c-.04,5.6,2.19,9.13,6.4,11.33,10.4,5.42,21.59-8.51,28.73-14.55,6.54-5.54,15.77-12.6,9.34-21.92-6.79-9.85-16.53-3.17-23.3,2.46-6.1,5.07-21.45,13.73-21.18,22.68Zm99.81,80.23c2.26-.91,4.87-1.38,6.71-2.83,6.84-5.4,21.6-13.62,23.12-22.97,1.28-7.92-6.34-15.19-14.17-13.54-7.6,1.6-20.52,13.49-25.12,19.58-6.17,8.17-.55,18.89,9.47,19.76Zm-36.11-16.34c1.1-.39,3.55-.65,5.18-1.94,7.07-5.61,22.49-14.02,23.79-23.8,1.15-8.7-7.87-15.6-15.95-12.69-6.81,2.45-22.06,15-24.92,21.67-3.8,8.86,3.08,16.46,11.91,16.77ZM215.6,30.31c0-4.01.12-7.74-.03-11.45-.43-10.6-22.95-6.41-29.87-6.39-4.13.01-12.8-1.5-16.1,1.66-3.51,3.36-1.87,11.89-1.87,16.18h47.88Zm-83.62,60.11v11.67h11.47v-11.67h-11.47Zm107.79.12v11.56h11.5v-11.56h-11.5Zm-41.03,280.08c5.45,2.17,9.73,1.17,13.26-2.34,3.03-3.02,4.36-6.75,2.97-11.47-5.46,4.64-10.6,9.02-16.23,13.81Z"/>
  </g>
</svg>