<?xml version="1.0" encoding="UTF-8"?>
<svg id="Layer_2" data-name="Layer 2" xmlns="http://www.w3.org/2000/svg" viewBox="0 0 28.7 28.66">
  <defs>
    <style>
      .cls-1 {
        fill: #fff;
      }
    </style>
  </defs>
  <g id="Layer_1-2" data-name="Layer 1">
    <g>
      <path class="cls-1" d="m18.8,26.95c-.14.94-.66,1.53-1.46,1.61-.3.03-.64-.05-.91-.18-.47-.22-.91-.51-1.39-.78-.08.11-.16.21-.24.32-.72.97-1.97.98-2.68.02-.12-.17-.21-.21-.42-.15-.83.25-1.59-.17-2.05-1.09-1.34-.07-1.92-.58-2.03-1.76-1.5-.65-1.87-1.46-1.15-2.67-.53-.66-1.06-1.33-1.61-2.01-.33.37-.71.63-1.19.59-.28-.02-.57-.09-.81-.22-.7-.38-1.39-.79-2.08-1.19-.77-.45-1.01-1.29-.57-2.06,1.25-2.19,2.52-4.37,3.78-6.55.05-.08.09-.18.16-.23.35-.24.34-.58.34-.95,0-2.96,0-5.93,0-8.89C4.49.14,4.62,0,5.24,0c6.07,0,12.14,0,18.22,0,.62,0,.76.14.76.76,0,3.07,0,6.13,0,9.2,0,.21.04.36.21.51.14.12.24.28.33.44,1.23,2.13,2.46,4.26,3.69,6.39.5.87.27,1.7-.59,2.2-.62.36-1.24.71-1.86,1.07-.92.53-1.63.38-2.28-.51-.34.17-.69.35-1.06.54.42.94.16,1.68-.6,2.29.59,1.27-.36,2.53-1.58,2.49-.17.91-.68,1.48-1.66,1.59ZM5.5,10.03c.19.07.37.12.52.21.68.38,1.39.75,2.05,1.18.59.38.72.66.87,1.31.15.63.68.63,1.29.84.54.19,1.1.57,1.64.32.59-.28.96-.75,1.65-.9.66-.14,1.29-.02,1.95.09,1.49.24,2.83.37,4.31,0-.1-.87.3-1.31,1-1.73.8-.48,1.61-.93,2.42-1.4V1.04H5.5v8.99Zm10.08,16.73c.43.25.85.51,1.28.74.74.4,1.18-.62.61-1.1-.4-.34-2.19-.84-1.85-1.59.36-.8,1.91.48,2.34.73.34.2.76.54,1.15.3.27-.16.4-.54.27-.82-.34-.75-1.74-.89-2.28-1.47-.51-.55-.02-1.02.6-.77.83.34,1.59.95,2.38,1.37.51.27,1.46.06,1.08-.71-.31-.64-1.76-1.12-2.35-1.5-.29-.18-.65-.32-.62-.71.02-.3.26-.46.54-.45.85.05,1.53,1.21,2.38,1.3.74.08.9-.76.42-1.16-.72-.61-1.74-1.01-2.56-1.48-.82-.47-1.63-.94-2.44-1.43-.81-.49-1.54-.94-2.5-.57-.79.31-.93,1.01-1.35,1.68-.55.87-2.39,1.83-3.01.5-.34-.73-.09-1.81-.05-2.58.02-.42,0-.82.21-1.18.23-.38.63-.69.94-1.01-.77-.27-1.53-.55-2.31-.82-.8,1.36-1.58,2.73-2.37,4.1-.28.48-.75.95-.5,1.49.31.65,1.02,1.27,1.47,1.83.41-.58.81-1.3,1.59-1.4.72-.09,1.24.45,1.79.82,1.14-.55,2.3.27,2.44,1.48,1.08.16,1.87,1.17,1.45,2.26,1.11.5,1.48,1.13,1.23,2.18Zm7.63-7.59c-.98-1.69-1.94-3.37-2.92-5.04-.15-.25-1.65.16-1.9.18-.65.05-1.3.03-1.95-.05-1.08-.13-2.16-.6-3.22-.12-.51.23-.89.65-1.29,1.03-.38.37-1.08.84-1.28,1.33-.2.5-.07,1.45-.1,2-.03.59-.02.91.64.63,1.04-.43.94-1.86,1.93-2.38,1.19-.62,2.14-.64,3.3.03,1.19.68,2.36,1.38,3.55,2.06.47.27,1.14.82,1.66.93.49.11,1.13-.39,1.57-.61Zm.12-8.12s-.15.04-.24.09c-.68.39-1.37.78-2.05,1.18-.32.19-.39.43-.2.75,1.25,2.17,2.49,4.33,3.74,6.49.19.32.43.39.75.21.69-.39,1.37-.78,2.05-1.18.34-.2.4-.42.21-.77-.24-.43-.49-.85-.74-1.28-.99-1.71-1.97-3.42-2.96-5.13-.11-.19-.23-.37-.56-.36Zm-15.33,1.68c-.11-.13-.21-.31-.36-.4-.66-.4-1.34-.79-2.02-1.17-.36-.2-.59-.14-.8.21-1.24,2.14-2.48,4.29-3.71,6.44-.22.37-.15.58.23.81.65.38,1.31.76,1.97,1.14.37.21.6.15.81-.22,1.23-2.14,2.47-4.27,3.7-6.41.06-.1.1-.22.17-.4Zm3.86,9.66c-.02-.38-.21-.57-.47-.66-.73-.26-1.42,1.26-1.75,1.73-.33.47-1.3,1.35-.86,1.96.61.86,1.31-.39,1.62-.83.5-.71,1.1-1.42,1.46-2.2Zm1.62,1.64c0-.31-.22-.56-.5-.66-.66-.23-1.16.94-1.46,1.36-.31.44-1.21,1.27-.8,1.85.82,1.15,2.49-1.96,2.76-2.55Zm-3.91-2.29c-.02-.36-.2-.55-.46-.66-.62-.24-.97.6-1.26,1-.29.41-.96,1.02-.59,1.55.77,1.12,2.06-1.38,2.31-1.9Zm3.93,5.98c.15-.1.34-.17.45-.31.25-.3.8-.89.72-1.31-.1-.52-.69-.59-1.05-.35-.6.41-1.27,1.79-.12,1.96Z"/>
      <path class="cls-1" d="m16.82,3.82c.63,0,4.4-.42,4.33.54-.05.69-1.28.47-1.68.47-.83,0-1.66,0-2.48,0-.71,0-4.45.41-4.49-.48-.05-.95,3.66-.53,4.33-.53Z"/>
      <path class="cls-1" d="m16.82,9.08c.88,0,1.76,0,2.64,0,.46,0,1.92-.25,1.65.61-.21.66-1.46.38-1.97.38-.83,0-1.66,0-2.48,0-.66,0-4.18.42-4.17-.51,0-.9,3.65-.49,4.33-.49Z"/>
      <path class="cls-1" d="m8.74,4.36c.35-.36.98-1.29,1.53-1.32,1.09-.05.07,1.12-.17,1.36-.56.57-1.1,1.47-1.86.79-.21-.18-.67-.54-.71-.82-.07-.46.47-.78.83-.45.13.12.24.28.37.45Z"/>
      <path class="cls-1" d="m8.76,9.68c.32-.33,1.13-1.52,1.66-1.33.97.35-.39,1.43-.65,1.69-.23.23-.56.71-.89.76-.39.06-.71-.37-.95-.63-.2-.21-.49-.47-.36-.8.15-.35.59-.37.84-.13.12.11.21.25.36.43Z"/>
    </g>
  </g>
</svg>