<?xml version="1.0" encoding="UTF-8"?>
<svg id="Layer_2" data-name="Layer 2" xmlns="http://www.w3.org/2000/svg" viewBox="0 0 362.87 363.02">
  <defs>
    <style>
      .cls-1 {
        fill: #fff;
      }
    </style>
  </defs>
  <g id="Layer_1-2" data-name="Layer 1">
    <g>
      <path class="cls-1" d="m295,149.66c6.77-6.1,13.71-10.68,22.33-12.51,15.21-3.23,30.85,3.14,39.39,16.2,8.47,12.95,8.19,30.13-.82,42.59-1.74,2.41-3.8,4.63-5.91,6.74-17.54,17.58-35.16,35.08-52.61,52.75-1.37,1.39-2.36,3.83-2.38,5.79-.17,20.84,0,41.69-.14,62.53-.12,19.9-12.23,34.99-30.84,38.62-2.79.54-5.71.62-8.56.62-72,.03-144,.04-215.99.02-19.85,0-35.06-12.02-38.75-30.63-.6-3.03-.69-6.2-.69-9.31C0,228.72,0,134.36.01,40.01.02,19.72,11.8,4.57,30.54.79c3.03-.61,6.2-.69,9.3-.69C95.99.06,152.14.11,208.29,0c4.59,0,7.98,1.4,11.23,4.66,23.65,23.82,47.42,47.52,71.25,71.17,2.97,2.95,4.29,6.16,4.27,10.3-.09,19.84-.04,39.69-.04,59.53,0,1.33,0,2.66,0,3.98Zm-15.26,123.28c-14.88,14.89-28.81,29.01-43,42.86-2.46,2.4-5.8,4.43-9.09,5.38-17.95,5.16-36.02,9.94-54.05,14.82-7.91,2.14-12.57-2.48-10.43-10.35,4.93-18.16,9.79-36.33,14.95-54.42.84-2.96,2.62-5.99,4.78-8.17,31.39-31.61,62.94-63.07,94.34-94.67,1.38-1.38,2.38-3.82,2.39-5.77.16-22.59.11-45.18.1-67.77,0-1.21-.11-2.42-.19-4.01-1.55,0-2.89,0-4.23,0-10.86,0-21.71.06-32.57-.01-21.91-.14-38.32-16.35-38.65-38.27-.16-11.11-.03-22.21-.03-33.32,0-1.3,0-2.61,0-4.07-1.64,0-2.63,0-3.63,0-53.65,0-107.31-.02-160.96.01-15.18,0-24.34,9.29-24.34,24.6-.01,94.48-.01,188.95,0,283.43,0,15.51,9.14,24.72,24.6,24.72,71.75.02,143.49-.15,215.24.15,13.98.06,25.41-10.13,24.88-25.1-.52-14.58-.11-29.2-.11-43.8,0-1.7,0-3.4,0-6.23Zm-51.26,28.65c31.97-31.97,63.87-63.88,95.33-95.34-10.26-10.22-20.81-20.71-31.02-30.87-31.52,31.53-63.41,63.42-95.24,95.27,10.23,10.24,20.7,20.72,30.93,30.95Zm75.92-138.63c10.68,10.66,21.23,21.2,31.84,31.79,11.31-9.07,16.55-25.82,4.76-37.05-11.4-10.86-27.76-5.85-36.6,5.26ZM219.45,27.08c0,9.36-.38,18.71.1,28.02,1.23,23.82,31.35,22.09,48.3,20.41-16.11-16.12-32.18-32.2-48.4-48.43Zm-29.54,258.09c-2.99,11.03-5.88,21.72-8.99,33.19,11.55-3.18,22.18-6.11,33.12-9.12-8.21-8.19-15.93-15.9-24.12-24.08Z"/>
      <path class="cls-1" d="m60.2,189.09c-6.99,0-21.12,2.93-26.95-1.54-5.99-4.59-3.04-19.91-3.04-26.63,0-7.05-2.99-23.12,1.53-29.16,4.76-6.36,21.91-3.17,28.79-3.17,6.81,0,22.9-2.99,28.09,2.3,5.22,5.33,2.16,21.37,2.16,27.99,0,7.01,3.09,22.8-2.26,28.08-5.47,5.38-21.21,2.14-28.31,2.14Zm-14.66-15.28h29.9v-29.75h-29.9v29.75Z"/>
      <path class="cls-1" d="m30.23,75.57c0-7.12-2.95-21.2,1.57-27.16,4.61-6.08,19.85-3.13,26.61-3.14,7.08,0,23.28-2.99,29.28,1.65,6.28,4.86,3.09,21.8,3.09,28.7,0,6.85,3,22.84-2.3,28.07-5.34,5.26-21.31,2.21-27.95,2.21-7.03,0-22.77,3.1-28.09-2.23-5.41-5.42-2.2-21.04-2.2-28.1Zm45.25-14.92h-29.86v29.91h29.86v-29.91Z"/>
      <path class="cls-1" d="m60.22,272.34c-6.6,0-21.78,2.89-27.23-1.61-5.95-4.91-2.77-19.78-2.77-26.58,0-7.29-3.12-23.39,1.57-29.36,4.83-6.16,21.88-2.81,28.71-2.81,7.25,0,22.43-3.2,28.04,2.24,5.19,5.03,2.23,21.33,2.23,27.89,0,7.04,3.08,22.49-2.27,28.01-5.11,5.27-21.67,2.22-28.28,2.22Zm-14.71-15.35h29.93v-29.56h-29.93v29.56Z"/>
      <path class="cls-1" d="m147.4,151.4c-7.62,0-42.7,5.49-41.49-8.2,1.09-12.44,33.71-7.01,41.54-7.01,8.97,0,17.94,0,26.92,0,5.14,0,12.66-.74,14.38,5.64,4.05,15.04-34.04,9.56-41.34,9.57Z"/>
      <path class="cls-1" d="m147.41,219.6c9.49,0,19-.19,28.49,0,5.39.11,12.87-.13,13.06,7.28.35,13.15-29.59,7.8-37.61,7.8-8.87,0-17.74,0-26.6,0-5.73,0-15.09,2.02-18.17-4.51-7.3-15.48,34.55-10.57,40.83-10.57Z"/>
      <path class="cls-1" d="m147.45,68.04c-8.03,0-40.57,5.48-41.56-6.92-1.09-13.56,31.45-8.19,39.41-8.19,9.08,0,18.16,0,27.24,0,5.61,0,14.46-1.33,16.24,5.86,3.63,14.74-34.3,9.25-41.32,9.25Z"/>
      <path class="cls-1" d="m136.16,83.26c7.09,0,30.25-4.2,30.15,7.49-.1,11.87-23.09,7.6-30.33,7.6-7.1,0-30.52,4.25-30.11-7.79.39-11.59,23.07-7.3,30.29-7.3Z"/>
      <path class="cls-1" d="m136.16,166.48c7.09,0,30.25-4.2,30.15,7.51-.1,11.85-23.1,7.57-30.32,7.57-7.11,0-30.49,4.27-30.11-7.75.37-11.63,23.04-7.33,30.28-7.33Z"/>
      <path class="cls-1" d="m135.78,264.8c-7.19,0-27.02,3.95-29.69-5.54-3.77-13.41,21.57-9.55,28.11-9.56,7.3,0,32.14-4.48,32.11,7.6-.03,11.78-23.42,7.5-30.53,7.5Z"/>
    </g>
  </g>
</svg>