<?xml version="1.0" encoding="UTF-8"?>
<svg id="Layer_2" data-name="Layer 2" xmlns="http://www.w3.org/2000/svg" viewBox="0 0 27.85 27.96">
  <defs>
    <style>
      .cls-1 {
        fill: #fff;
      }
    </style>
  </defs>
  <g id="Layer_1-2" data-name="Layer 1">
    <g>
      <path class="cls-1" d="m23.34,7.03c.38.67.77,1.33,1.15,2,.3.53.69,1.06.65,1.71-.07,1.04-1.2,1.77-2.19,1.4-.66-.25-.74-.79-1.52-.78-.68,0-1.37.09-2.04.21-.77.14-1.52.33-2.27.57-.48.15-1.51.33-1.84.72.74,1.01,1.49,2.01,2.23,3.01.29.39.82.89.77,1.43-.04.44-.52.84-.85,1.09-1.05.8-1.63-.32-2.22-1.11-.73-.97-1.44-1.96-2.19-2.92-2.03,1.14-4.66-.19-4.64-2.61.01-1.29.77-2.13,1.82-2.76.5-.3,1.14-.81,1.71-.98.5-.15.74-.23,1.18-.59.99-.81,1.91-1.69,2.71-2.69.38-.47.79-.98,1.07-1.52.29-.56-.07-.95,0-1.53.13-1.1,1.4-1.74,2.37-1.23.53.28.79.87,1.08,1.36.39.67.77,1.36,1.17,2.02,1.15-.32,1.94-.07,2.41.74.46.8.27,1.61-.57,2.46Zm-10.52,1.62c.63,1.09,1.25,2.16,1.86,3.24.26.45,2.71-.68,3.25-.81,1.21-.31,2.43-.44,3.67-.55-1.35-2.33-2.67-4.63-4.02-6.96-1.25,2.04-2.89,3.65-4.77,5.08Zm5.64-7.59s-.14.02-.23.05c-.54.18-.71.75-.4,1.29,1,1.73,2,3.46,2.99,5.19.64,1.11,1.28,2.22,1.93,3.33.23.39.57.57.92.49.59-.13.84-.72.53-1.27-.65-1.14-1.31-2.27-1.97-3.41-.99-1.71-1.98-3.42-2.96-5.14-.18-.31-.4-.51-.82-.53Zm-4.21,11.67c-.76-1.31-1.49-2.58-2.24-3.88-.66.39-1.32.74-1.93,1.15-.92.63-1.16,1.91-.6,2.89.56.97,1.79,1.41,2.8.93.67-.31,1.29-.71,1.97-1.09Zm-.52,1.23c.26.35.51.68.76,1.02.56.75,1.12,1.5,1.68,2.25.14.19.35.66.62.64.13,0,.66-.52.67-.65.03-.25-.52-.78-.67-.97-.22-.3-.45-.61-.67-.91-.48-.65-.96-1.29-1.44-1.94-.32.18-.64.36-.95.56Zm9.17-7.66c.47-.27.56-.97.27-1.38-.29-.42-.82-.57-1.26-.33.33.57.65,1.13.98,1.71Z"/>
      <path class="cls-1" d="m13.36,23.29c0-1.14-.02-1.9,1.31-1.92.66-.01,1.33,0,1.99,0,.67,0,.98-.2,1.42-.68,1.58-1.72,1.7-4.14.19-5.95-.32-.38-1.07-.8-1.25-1.24-.18-.44.17-.67.57-.51.82.32,1.67,1.61,2.05,2.36,1.06,2.13.4,4.28-1.06,6,.71.06,1.61-.17,2.28.08.77.29.62,1.17.62,1.84,0,1.01,0,2.02,0,3.02,0,.69.03,1.41-.79,1.58-.91.19-2.04.01-2.97.01-.98,0-1.95,0-2.93,0-.71,0-1.31-.05-1.42-.87-.13-.93,0-1.94,0-2.88-1.07.18-2.12.34-3.2.35-.43,0-.93-.11-1.35-.02-.49.1-.94.55-1.34.83-.83.58-1.67,1.16-2.5,1.74-.64.44-1.95,1.49-1.65-.04.21-1.04.47-2.08.72-3.11.08-.35.22-.55-.05-.81-.34-.33-.94-.53-1.33-.82C1.28,21.23.16,19.73.03,17.98c-.28-3.72,3.54-6.25,6.79-6.89.3-.06.78-.17.8.29.02.44-.61.5-.92.59-.94.26-1.85.56-2.7,1.04-1.43.81-2.76,2.11-3.1,3.77-.4,1.96.74,3.72,2.26,4.85.59.43,1.87.75,1.86,1.54,0,.5-.25,1.09-.37,1.58-.14.6-.28,1.2-.42,1.8.76-.51,1.5-1.04,2.25-1.56.64-.45,1.58-1.44,2.4-1.37,1.5.12,2.98.04,4.47-.33Zm4.03,3.8c1,0,1.99,0,2.99,0,.21,0,.31-.06.31-.28,0-1.46,0-2.91,0-4.37,0-.21-.08-.27-.28-.27-1.99,0-3.98,0-5.97,0-.22,0-.29.07-.29.29,0,1.44,0,2.87,0,4.31,0,.24.07.33.32.32.98-.01,1.95,0,2.93,0Z"/>
      <path class="cls-1" d="m.82,7.05c.29-.56.63-1.03-.1-1.34-.49-.21-.66-.25-.7-.82-.03-.46-.07-.98.34-1.25.19-.12.44-.11.62-.25.38-.3.14-.5,0-.85-.22-.6.13-1.06.65-1.43.64-.44,1.05.39,1.58.08.39-.23.21-.82.64-1.06.38-.2,1.33-.16,1.64.16.31.33.11,1.03.76.94.26-.04.42-.29.69-.31.41-.04.69.29.94.57.25.27.45.48.37.87-.05.23-.31.4-.3.65,0,.6.71.41,1.01.77.28.32.29,1.28.05,1.64-.28.42-1.06.19-1.07.82,0,.26.24.41.3.65.09.39-.11.61-.36.88-.21.23-.5.57-.84.58-.33.01-.53-.32-.84-.34-.66-.04-.45.84-.92,1.1-.4.22-1.38.19-1.68-.2-.3-.39-.12-1.03-.82-.86-.33.08-.51.38-.89.26-.34-.1-.71-.6-.92-.85-.09-.1-.11-.25-.17-.41Zm1.29.44c.09-.06.16-.1.24-.14.48-.26,1.1-.18,1.5.18.46.42.28.89.99.86.48-1.21,1.08-1.45,2.18-.93.14-.13.28-.26.41-.38-.58-.99-.29-1.7.91-2.2.04-.69-.44-.57-.84-1.01-.47-.51-.43-1.16-.05-1.7-.14-.13-.27-.26-.42-.4-.87.65-1.97.1-2.17-.91-.73,0-.48.33-.91.79-.48.51-1.25.53-1.8.14-.15.14-.28.26-.42.39.55.74.32,1.92-.9,2.19v.54c1.17.24,1.47,1.38.91,2.18.13.14.25.28.38.41Z"/>
      <path class="cls-1" d="m27.85,15.12c-.05,1.91-1.35,4.07-2.8,5.26-.81.67-1.82,1.08-2.86.69-1.1-.42-1.16-1.18-.62-2.12.22-.39.44-.85.91-.98.49-.13.86.39,1.25.31.52-.11,1.55-2.01,1.55-2.51,0-.43-.34-.4-.61-.68-.3-.31-.35-.69-.22-1.08.28-.82,1.02-2.03,2.03-1.48.96.52,1.37,1.34,1.37,2.6Zm-.79-.16c0-.77-.26-1.36-.93-1.72-.39-.21-.64.49-.78.76-.15.3-.21.34,0,.59.23.27.57.31.71.7.14.39-.04.8-.19,1.16-.33.79-.82,1.78-1.48,2.35-.26.22-.55.34-.89.28-.25-.04-.51-.35-.75-.33-.28.02-.58.69-.67.92-.14.36-.08.43.27.6.88.42,1.72-.07,2.37-.66,1.25-1.13,2.25-2.95,2.34-4.65Z"/>
      <path class="cls-1" d="m10.13,18.66c.96,0,1.93,0,2.89,0,.39,0,2.26-.29,2.23.42-.03.69-1.92.39-2.32.39-1,0-1.99,0-2.99,0-.94,0-1.89,0-2.83,0-.42,0-2.3.29-2.16-.47.11-.62,1.68-.34,2.13-.34,1.02,0,2.04,0,3.06,0Z"/>
      <path class="cls-1" d="m8.82,16.54c-.56,0-3.88.35-3.89-.39,0-.75,3.18-.42,3.72-.42.58,0,4.08-.31,4.03.42-.04.61-1.11.39-1.49.39-.79,0-1.58,0-2.37,0Z"/>
      <path class="cls-1" d="m26.53,6.27c.35,0,1.31-.18,1.31.41,0,.58-.97.41-1.32.41-.35,0-1.31.17-1.33-.4-.02-.6.98-.42,1.33-.42Z"/>
      <path class="cls-1" d="m23,2.45c-.57.02-.45-.49-.29-.81.17-.35.57-1.3.89-1.48.5-.28.7.14.54.57-.19.53-.61,1.07-.9,1.55-.06.09-.19.13-.25.17Z"/>
      <path class="cls-1" d="m27.19,2.99c-.3.36-1.6,1.37-2.09,1.14-.91-.44,1.18-1.4,1.48-1.56.29-.16.6.02.6.42Z"/>
      <path class="cls-1" d="m15.9,24.62c0-.8-.23-2.06.9-1.46.46.25,2.31.99,2.1,1.62-.1.31-.78.56-1.04.71-.4.23-.8.52-1.22.69-1,.43-.74-.93-.74-1.56Zm.81.61c.35-.2.68-.39,1.04-.6-.37-.21-.69-.4-1.04-.6v1.2Z"/>
      <path class="cls-1" d="m6.98,4.6c.02,2.1-2.61,3.18-4.09,1.71-1.49-1.47-.42-4.09,1.67-4.11,1.31-.01,2.4,1.08,2.41,2.39Zm-.81.03c0-.9-.69-1.61-1.59-1.61-1.43,0-2.14,1.81-1.08,2.78,1,.9,2.66.18,2.66-1.16Z"/>
    </g>
  </g>
</svg>