<svg width="17" height="17" viewBox="0 0 17 17" fill="none" xmlns="http://www.w3.org/2000/svg">
<g clip-path="url(#clip0_27_5442)">
<path d="M0.890708 13.0164C0.390577 13.5164 0.109526 14.1946 0.109375 14.9018L0.109375 16.2704H1.47804C2.18523 16.2703 2.86339 15.9892 3.36338 15.4891L12.2587 6.59376L9.78604 4.12109L0.890708 13.0164Z" fill="#E25F41"/>
<path d="M15.5411 0.840747C15.3788 0.678237 15.186 0.549317 14.9738 0.461358C14.7616 0.373399 14.5342 0.328125 14.3045 0.328125C14.0748 0.328125 13.8473 0.373399 13.6351 0.461358C13.4229 0.549317 13.2301 0.678237 13.0678 0.840747L10.7305 3.17875L13.2031 5.65141L15.5411 3.31408C15.7036 3.15174 15.8326 2.95896 15.9205 2.74677C16.0085 2.53457 16.0538 2.30712 16.0538 2.07741C16.0538 1.84771 16.0085 1.62026 15.9205 1.40806C15.8326 1.19587 15.7036 1.00309 15.5411 0.840747Z" fill="#E25F41"/>
</g>
<defs>
<clipPath id="clip0_27_5442">
<rect width="16" height="16" fill="#E25F41" transform="translate(0.109375 0.270508)"/>
</clipPath>
</defs>
</svg>
