<?xml version="1.0" encoding="UTF-8" standalone="no"?> <svg width="64" height="64" viewBox="0 0 64 64" fill="none" xmlns="http://www.w3.org/2000/svg">
<path d="M51 3C52.0609 3 53.0783 3.42143 53.8284 4.17157C54.5786 4.92172 55 5.93913 55 7V14H47V7C47 5.93913 47.4214 4.92172 48.1716 4.17157C48.9217 3.42143 49.9391 3 51 3V3Z" fill="#4891D3"/>
<path d="M47 3H18C16.9391 3 15.9217 3.42143 15.1716 4.17157C14.4214 4.92172 14 5.93913 14 7V61H43C44.0609 61 45.0783 60.5786 45.8284 59.8284C46.5786 59.0783 47 58.0609 47 57V7C47 5.93913 47.4214 4.92172 48.1716 4.17157C48.9217 3.42143 49.9391 3 51 3H47Z" fill="#57B7EB"/>
<path d="M37 46C33.287 46 29.726 44.525 27.1005 41.8995C24.475 39.274 23 35.713 23 32V3H18C16.9391 3 15.9217 3.42143 15.1716 4.17157C14.4214 4.92172 14 5.93913 14 7V61H43C44.0609 61 45.0783 60.5786 45.8284 59.8284C46.5786 59.0783 47 58.0609 47 57V46H37Z" fill="#4891D3"/>
<path d="M25 11H19C18.7348 11 18.4804 11.1054 18.2929 11.2929C18.1054 11.4804 18 11.7348 18 12C18 12.2652 18.1054 12.5196 18.2929 12.7071C18.4804 12.8946 18.7348 13 19 13H21V18C21 18.2652 21.1054 18.5196 21.2929 18.7071C21.4804 18.8946 21.7348 19 22 19C22.2652 19 22.5196 18.8946 22.7071 18.7071C22.8946 18.5196 23 18.2652 23 18V13H25C25.2652 13 25.5196 12.8946 25.7071 12.7071C25.8946 12.5196 26 12.2652 26 12C26 11.7348 25.8946 11.4804 25.7071 11.2929C25.5196 11.1054 25.2652 11 25 11Z" fill="#FCBC04"/>
<path d="M40.41 15L42.71 12.71C42.8983 12.5217 43.0041 12.2663 43.0041 12C43.0041 11.7337 42.8983 11.4783 42.71 11.29C42.5217 11.1017 42.2663 10.9959 42 10.9959C41.7337 10.9959 41.4783 11.1017 41.29 11.29L39 13.59L36.71 11.29C36.5217 11.1017 36.2663 10.9959 36 10.9959C35.7337 10.9959 35.4783 11.1017 35.29 11.29C35.1017 11.4783 34.9959 11.7337 34.9959 12C34.9959 12.2663 35.1017 12.5217 35.29 12.71L37.59 15L35.29 17.29C35.1963 17.383 35.1219 17.4936 35.0711 17.6154C35.0203 17.7373 34.9942 17.868 34.9942 18C34.9942 18.132 35.0203 18.2627 35.0711 18.3846C35.1219 18.5064 35.1963 18.617 35.29 18.71C35.383 18.8037 35.4936 18.8781 35.6154 18.9289C35.7373 18.9797 35.868 19.0058 36 19.0058C36.132 19.0058 36.2627 18.9797 36.3846 18.9289C36.5064 18.8781 36.617 18.8037 36.71 18.71L39 16.41L41.29 18.71C41.383 18.8037 41.4936 18.8781 41.6154 18.9289C41.7373 18.9797 41.868 19.0058 42 19.0058C42.132 19.0058 42.2627 18.9797 42.3846 18.9289C42.5064 18.8781 42.617 18.8037 42.71 18.71C42.8037 18.617 42.8781 18.5064 42.9289 18.3846C42.9797 18.2627 43.0058 18.132 43.0058 18C43.0058 17.868 42.9797 17.7373 42.9289 17.6154C42.8781 17.4936 42.8037 17.383 42.71 17.29L40.41 15Z" fill="#FCBC04"/>
<path d="M33.89 17.55L30.89 11.55C30.8061 11.3862 30.6786 11.2487 30.5215 11.1527C30.3645 11.0567 30.184 11.006 30 11.006C29.8159 11.006 29.6355 11.0567 29.4784 11.1527C29.3214 11.2487 29.1939 11.3862 29.11 11.55L26.11 17.55C26.0129 17.7831 26.0076 18.0443 26.0952 18.2811C26.1827 18.5179 26.3566 18.7129 26.5819 18.8268C26.8073 18.9408 27.0673 18.9652 27.31 18.8953C27.5526 18.8254 27.7598 18.6663 27.89 18.45L30 14.24L32.11 18.45C32.1931 18.6149 32.3202 18.7536 32.4773 18.8507C32.6344 18.9477 32.8153 18.9994 33 19C33.1569 19.0019 33.3117 18.964 33.45 18.89C33.6855 18.7701 33.864 18.5619 33.9464 18.3108C34.0289 18.0597 34.0086 17.7862 33.89 17.55Z" fill="#FCBC04"/>
<path d="M39 57V54H7V57C7 58.0609 7.42143 59.0783 8.17157 59.8284C8.92172 60.5786 9.93913 61 11 61H43C41.9391 61 40.9217 60.5786 40.1716 59.8284C39.4214 59.0783 39 58.0609 39 57Z" fill="#57B7EB"/>
<path d="M42 25H26C25.7348 25 25.4804 24.8946 25.2929 24.7071C25.1054 24.5196 25 24.2652 25 24C25 23.7348 25.1054 23.4804 25.2929 23.2929C25.4804 23.1054 25.7348 23 26 23H42C42.2652 23 42.5196 23.1054 42.7071 23.2929C42.8946 23.4804 43 23.7348 43 24C43 24.2652 42.8946 24.5196 42.7071 24.7071C42.5196 24.8946 42.2652 25 42 25Z" fill="#A1D51C"/>
<path d="M35 30H20C19.7348 30 19.4804 29.8946 19.2929 29.7071C19.1054 29.5196 19 29.2652 19 29C19 28.7348 19.1054 28.4804 19.2929 28.2929C19.4804 28.1054 19.7348 28 20 28H35C35.2652 28 35.5196 28.1054 35.7071 28.2929C35.8946 28.4804 36 28.7348 36 29C36 29.2652 35.8946 29.5196 35.7071 29.7071C35.5196 29.8946 35.2652 30 35 30Z" fill="#A1D51C"/>
<path d="M33 35H30C29.7348 35 29.4804 34.8946 29.2929 34.7071C29.1054 34.5196 29 34.2652 29 34C29 33.7348 29.1054 33.4804 29.2929 33.2929C29.4804 33.1054 29.7348 33 30 33H33C33.2652 33 33.5196 33.1054 33.7071 33.2929C33.8946 33.4804 34 33.7348 34 34C34 34.2652 33.8946 34.5196 33.7071 34.7071C33.5196 34.8946 33.2652 35 33 35Z" fill="#A1D51C"/>
<path d="M32 40H20C19.7348 40 19.4804 39.8946 19.2929 39.7071C19.1054 39.5196 19 39.2652 19 39C19 38.7348 19.1054 38.4804 19.2929 38.2929C19.4804 38.1054 19.7348 38 20 38H32C32.2652 38 32.5196 38.1054 32.7071 38.2929C32.8946 38.4804 33 38.7348 33 39C33 39.2652 32.8946 39.5196 32.7071 39.7071C32.5196 39.8946 32.2652 40 32 40Z" fill="#A1D51C"/>
<path d="M32 45H23C22.7348 45 22.4804 44.8946 22.2929 44.7071C22.1054 44.5196 22 44.2652 22 44C22 43.7348 22.1054 43.4804 22.2929 43.2929C22.4804 43.1054 22.7348 43 23 43H32C32.2652 43 32.5196 43.1054 32.7071 43.2929C32.8946 43.4804 33 43.7348 33 44C33 44.2652 32.8946 44.5196 32.7071 44.7071C32.5196 44.8946 32.2652 45 32 45Z" fill="#A1D51C"/>
<path d="M36 50H20C19.7348 50 19.4804 49.8946 19.2929 49.7071C19.1054 49.5196 19 49.2652 19 49C19 48.7348 19.1054 48.4804 19.2929 48.2929C19.4804 48.1054 19.7348 48 20 48H36C36.2652 48 36.5196 48.1054 36.7071 48.2929C36.8946 48.4804 37 48.7348 37 49C37 49.2652 36.8946 49.5196 36.7071 49.7071C36.5196 49.8946 36.2652 50 36 50Z" fill="#7AB92D"/>
<path d="M26 35H20C19.7348 35 19.4804 34.8946 19.2929 34.7071C19.1054 34.5196 19 34.2652 19 34C19 33.7348 19.1054 33.4804 19.2929 33.2929C19.4804 33.1054 19.7348 33 20 33H26C26.2652 33 26.5196 33.1054 26.7071 33.2929C26.8946 33.4804 27 33.7348 27 34C27 34.2652 26.8946 34.5196 26.7071 34.7071C26.5196 34.8946 26.2652 35 26 35Z" fill="#A1D51C"/>
<path d="M47 50C52.5228 50 57 45.5228 57 40C57 34.4772 52.5228 30 47 30C41.4772 30 37 34.4772 37 40C37 45.5228 41.4772 50 47 50Z" fill="#F9E109"/>
<path d="M47 48C51.4183 48 55 44.4183 55 40C55 35.5817 51.4183 32 47 32C42.5817 32 39 35.5817 39 40C39 44.4183 42.5817 48 47 48Z" fill="#FCBC04"/>
<path d="M47 32C45.7102 32.0021 44.4401 32.316 43.2979 32.915C42.1556 33.514 41.1752 34.3803 40.44 35.44C41.7739 34.4986 43.3674 33.9954 45 34C47.1217 34 49.1566 34.8429 50.6569 36.3431C52.1571 37.8434 53 39.8783 53 42C53.0046 43.6326 52.5014 45.2262 51.56 46.56C52.9546 45.5866 54.0027 44.194 54.5522 42.5844C55.1016 40.9748 55.1238 39.232 54.6155 37.609C54.1072 35.986 53.0948 34.5672 51.7254 33.5586C50.356 32.55 48.7008 32.004 47 32Z" fill="#E59730"/>
<path d="M47 39C46.7033 39 46.4133 38.912 46.1667 38.7472C45.92 38.5824 45.7277 38.3481 45.6142 38.074C45.5007 37.7999 45.471 37.4983 45.5288 37.2074C45.5867 36.9164 45.7296 36.6491 45.9393 36.4393C46.1491 36.2296 46.4164 36.0867 46.7074 36.0288C46.9983 35.9709 47.2999 36.0007 47.574 36.1142C47.8481 36.2277 48.0824 36.42 48.2472 36.6666C48.412 36.9133 48.5 37.2033 48.5 37.5C48.5 37.7652 48.6054 38.0196 48.7929 38.2071C48.9804 38.3946 49.2348 38.5 49.5 38.5C49.7652 38.5 50.0196 38.3946 50.2071 38.2071C50.3947 38.0196 50.5 37.7652 50.5 37.5C50.497 36.7487 50.2523 36.0183 49.8021 35.4168C49.3518 34.8153 48.72 34.3747 48 34.16V33C48 32.7348 47.8947 32.4804 47.7071 32.2929C47.5196 32.1054 47.2652 32 47 32C46.7348 32 46.4804 32.1054 46.2929 32.2929C46.1054 32.4804 46 32.7348 46 33V34.16C45.1919 34.396 44.4963 34.9161 44.0415 35.6246C43.5867 36.333 43.4033 37.1819 43.5251 38.0149C43.6468 38.8479 44.0656 39.6088 44.7042 40.1574C45.3428 40.706 46.1582 41.0052 47 41C47.2967 41 47.5867 41.088 47.8334 41.2528C48.08 41.4176 48.2723 41.6519 48.3858 41.926C48.4994 42.2001 48.5291 42.5017 48.4712 42.7926C48.4133 43.0836 48.2705 43.3509 48.0607 43.5607C47.8509 43.7704 47.5836 43.9133 47.2926 43.9712C47.0017 44.0291 46.7001 43.9993 46.426 43.8858C46.1519 43.7723 45.9176 43.58 45.7528 43.3334C45.588 43.0867 45.5 42.7967 45.5 42.5C45.5 42.2348 45.3947 41.9804 45.2071 41.7929C45.0196 41.6054 44.7652 41.5 44.5 41.5C44.2348 41.5 43.9804 41.6054 43.7929 41.7929C43.6054 41.9804 43.5 42.2348 43.5 42.5C43.503 43.2513 43.7478 43.9817 44.198 44.5832C44.6482 45.1847 45.28 45.6253 46 45.84V47C46 47.2652 46.1054 47.5196 46.2929 47.7071C46.4804 47.8946 46.7348 48 47 48C47.2652 48 47.5196 47.8946 47.7071 47.7071C47.8947 47.5196 48 47.2652 48 47V45.84C48.8081 45.604 49.5037 45.0839 49.9585 44.3754C50.4133 43.667 50.5967 42.8181 50.475 41.9851C50.3532 41.1521 49.9344 40.3912 49.2958 39.8426C48.6572 39.294 47.8419 38.9948 47 39V39Z" fill="#F9E109"/>
<path d="M18 12C18 12.2652 18.1054 12.5196 18.2929 12.7071C18.4804 12.8946 18.7348 13 19 13H21V18C21 18.2652 21.1054 18.5196 21.2929 18.7071C21.4804 18.8946 21.7348 19 22 19C22.2652 19 22.5196 18.8946 22.7071 18.7071C22.8946 18.5196 23 18.2652 23 18V11H19C18.7348 11 18.4804 11.1054 18.2929 11.2929C18.1054 11.4804 18 11.7348 18 12Z" fill="#E59730"/>
<path d="M19 29C19 29.2652 19.1054 29.5196 19.2929 29.7071C19.4804 29.8946 19.7348 30 20 30H23V28H20C19.7348 28 19.4804 28.1054 19.2929 28.2929C19.1054 28.4804 19 28.7348 19 29Z" fill="#7AB92D"/>
<path d="M19 39C19 39.2652 19.1054 39.5196 19.2929 39.7071C19.4804 39.8946 19.7348 40 20 40H25.52C25.0809 39.367 24.6962 38.6979 24.37 38H20C19.7348 38 19.4804 38.1054 19.2929 38.2929C19.1054 38.4804 19 38.7348 19 39Z" fill="#7AB92D"/>
<path d="M22 44C22 44.2652 22.1054 44.5196 22.2929 44.7071C22.4804 44.8946 22.7348 45 23 45H31.82C30.577 44.5022 29.4118 43.8287 28.36 43H23C22.7348 43 22.4804 43.1054 22.2929 43.2929C22.1054 43.4804 22 43.7348 22 44Z" fill="#7AB92D"/>
<path d="M19 34C19 34.2652 19.1054 34.5196 19.2929 34.7071C19.4804 34.8946 19.7348 35 20 35H23.33C23.1906 34.3406 23.097 33.6723 23.05 33H20C19.7348 33 19.4804 33.1054 19.2929 33.2929C19.1054 33.4804 19 33.7348 19 34Z" fill="#7AB92D"/>
</svg>
