<?xml version="1.0" encoding="UTF-8"?>
<svg id="Layer_2" data-name="Layer 2" xmlns="http://www.w3.org/2000/svg" viewBox="0 0 31.94 26.55">
  <defs>
    <style>
      .cls-1 {
        fill: #fff;
      }
    </style>
  </defs>
  <g id="Layer_1-2" data-name="Layer 1">
    <g>
      <path class="cls-1" d="m31.94,23.2c-.33.47-1.1.31-1.59.31-.75,0-1.5,0-2.25,0-1.55,0-3.11,0-4.66,0-.56,0-1.23-.14-1.68.22-.42.34-.74.84-1.17,1.2-.85.7-1.84,1.21-2.92,1.45-2.24.51-4.66-.02-6.41-1.52-.4-.34-.76-.96-1.2-1.23-.5-.3-1.4-.12-1.97-.12-1.52,0-3.04,0-4.57,0-.85,0-1.69,0-2.54,0-.54,0-1.26-.12-.86-.83.36-.62,1.21-1.21,1.73-1.71.56-.55,1.11-1.14,1.72-1.64-.87-.91-1.74-1.83-2.62-2.74C.69,16.3.02,15.82,0,15.39c-.02-.54.55-.53.93-.53.09-.75.09-1.57.44-2.26.35-.69.93-.84,1.6-1.13.47-.21,1.41-1.01,1.95-.87.53.14.93,1.31,1.18,1.74.26-.44.7-1.71,1.29-1.76.26-.02.59.26.81.37.48.26.96.49,1.44.74.16-.6.28-1.58.76-2.02.27-.24.74-.32,1.07-.45.44-.18.86-.37,1.28-.59.5-.26,1.3-1.03,1.84-.64.27.2.46.71.63,1,.25.43.5.86.75,1.29.4-.68.74-1.52,1.24-2.13.56-.67,1.39.17,1.98.47.68.35,1.64.54,2.24.99.52.38.71,1.48.86,2.09.54-.29,1.57-1.11,2.2-1.12.65,0,1.07,1.29,1.34,1.76.25-.44.65-1.6,1.19-1.74.53-.14,1.54.62,2.01.84.81.39,1.36.64,1.69,1.52.23.62.24,1.24.24,1.89.36,0,.73-.03.98.3v.44c-1.18,1.23-2.36,2.46-3.51,3.66,1.15,1.21,2.33,2.4,3.51,3.58v.37Zm-15.98,2.35c3.37.05,6.31-2.79,6.38-6.17.07-3.56-2.7-6.47-6.2-6.56-3.39-.08-6.42,2.53-6.52,6.16-.1,3.63,2.71,6.5,6.34,6.56Zm14.22-3.06c-.11-.12-.18-.19-.25-.27-.82-.81-1.65-1.62-2.47-2.42-.38-.37-.38-.59-.01-.98.72-.75,1.44-1.5,2.16-2.25.2-.21.39-.42.62-.66h-7.64c1.02,2.2,1.01,4.38,0,6.58h7.61Zm-20.81,0c-.5-1.07-.77-2.15-.77-3.3,0-1.15.27-2.23.75-3.27H1.73c.52.59,1.08,1.14,1.62,1.71.36.38,1.33,1.08,1.41,1.6.08.55-.89,1.18-1.25,1.53-.55.54-1.1,1.25-1.78,1.61l.1.11h7.55Zm.11-7.64c0-.5-.06-.96.01-1.41.18-1.04-1.18-1.29-1.91-1.64-.26.44-.88,2.07-1.49,2.07-.61,0-1.2-1.58-1.47-2.04-.66.29-1.63.53-2.17.99-.5.43-.52,1.43-.44,2.03h7.46Zm12.93,0c.15,0,.22.02.29.02,2.13,0,4.27,0,6.4,0,.27,0,.67.11.83-.18.17-.32-.07-1.17-.21-1.47-.35-.77-1.68-1.06-2.42-1.38-.27.44-.91,2.15-1.57,2.02-.58-.12-1.12-1.57-1.39-2.03-.46.21-1.59.48-1.88.91-.28.41-.06,1.65-.06,2.12Zm-11.94-.58c1.47-1.55,3.21-2.35,5.21-2.45-.54-.92-1.07-1.83-1.6-2.75-.53.29-1.08.54-1.63.79-.43.2-1.1.36-1.42.74-.67.8-.57,2.69-.57,3.67Zm7.34-5.14c-.51.87-1.04,1.78-1.58,2.7,2.02.09,3.76.9,5.23,2.45-.02-1.28-.1-2.46-.52-3.6-.04-.1-.14-.21-.23-.26-.95-.43-1.91-.85-2.9-1.29Z"/>
      <path class="cls-1" d="m15.84,0c3.83,0,4.22,4.97,1.86,7.15-3.13,2.89-6.25-3.34-4.28-5.88.65-.83,1.52-1.23,2.42-1.26Zm2.31,3.57c.08-1.32-.7-2.32-1.73-2.51-2.66-.49-3.09,2.69-2.11,4.47.48.87,1.48,1.68,2.47,1.06.95-.59,1.29-1.98,1.37-3.02Z"/>
      <path class="cls-1" d="m3.5,6.86c-.04-2.8,3.93-3.84,5.02-1.14.96,2.38-1.83,6.52-4.1,3.76-.65-.79-.87-1.73-.92-2.62Zm4.18,0c.03-.95-.57-1.62-1.44-1.72-2-.24-1.96,2.38-1.17,3.52,1.32,1.89,2.49-.46,2.61-1.8Z"/>
      <path class="cls-1" d="m25.85,4.12c2.94,0,3.18,3.86,1.53,5.58-.79.82-1.96.91-2.84.17-1.09-.9-1.51-2.49-1.2-3.84.27-1.14,1.33-1.91,2.51-1.91Zm-1.58,2.92c.03.56.21,1.29.74,1.88,1.54,1.73,3-1.86,2.15-3.11-1.04-1.53-2.94-.31-2.89,1.23Z"/>
      <path class="cls-1" d="m12.92,22.99c.09-.67.29-1.43.29-2.11,0-.61-.43-.88-.83-1.3-.3-.31-1.2-.95-1.03-1.47.16-.5,1.03-.46,1.45-.54.75-.13,1.35-.1,1.77-.78.33-.53.53-1.18.91-1.66,1.02-1.28,1.57,1.53,2.1,2.02.58.53,2.94.14,3.03,1.08.05.48-.78,1.07-1.08,1.38-.53.56-.84.85-.74,1.67.06.48.43,1.57.2,2.05-.3.63-1.03.1-1.46-.1-.57-.27-1.21-.77-1.85-.62-.66.15-1.4.69-2.02.97-.42.19-.76-.04-.75-.58Zm-.07-4.4c.42.44.78.85,1.17,1.22.57.55.12,1.79.02,2.46.54-.26,1.35-.85,1.94-.85.6,0,1.39.59,1.93.84-.08-.62-.36-1.43-.19-2.04.17-.64.95-1.18,1.39-1.64-.58-.11-1.57-.1-2.05-.44-.49-.35-.79-1.3-1.08-1.83-.28.52-.58,1.47-1.06,1.82-.48.35-1.49.35-2.07.45Z"/>
    </g>
  </g>
</svg>