<svg width="17" height="17" viewBox="0 0 17 17" fill="none" xmlns="http://www.w3.org/2000/svg">
<g clip-path="url(#clip0_27_4394)">
<path d="M14.6042 2.98161H12.5375C12.3828 2.22922 11.9734 1.55317 11.3783 1.06742C10.7833 0.581668 10.039 0.315911 9.27083 0.314941L7.9375 0.314941C7.16936 0.315911 6.42505 0.581668 5.83 1.06742C5.23495 1.55317 4.82556 2.22922 4.67083 2.98161H2.60417C2.42736 2.98161 2.25779 3.05185 2.13276 3.17687C2.00774 3.30189 1.9375 3.47146 1.9375 3.64827C1.9375 3.82509 2.00774 3.99465 2.13276 4.11968C2.25779 4.2447 2.42736 4.31494 2.60417 4.31494H3.27083V12.9816C3.27189 13.8653 3.62342 14.7126 4.24831 15.3375C4.87321 15.9624 5.72044 16.3139 6.60417 16.3149H10.6042C11.4879 16.3139 12.3351 15.9624 12.96 15.3375C13.5849 14.7126 13.9364 13.8653 13.9375 12.9816V4.31494H14.6042C14.781 4.31494 14.9505 4.2447 15.0756 4.11968C15.2006 3.99465 15.2708 3.82509 15.2708 3.64827C15.2708 3.47146 15.2006 3.30189 15.0756 3.17687C14.9505 3.05185 14.781 2.98161 14.6042 2.98161ZM7.9375 11.6483C7.9375 11.8251 7.86726 11.9947 7.74224 12.1197C7.61721 12.2447 7.44764 12.3149 7.27083 12.3149C7.09402 12.3149 6.92445 12.2447 6.79943 12.1197C6.6744 11.9947 6.60417 11.8251 6.60417 11.6483V7.64827C6.60417 7.47146 6.6744 7.30189 6.79943 7.17687C6.92445 7.05185 7.09402 6.98161 7.27083 6.98161C7.44764 6.98161 7.61721 7.05185 7.74224 7.17687C7.86726 7.30189 7.9375 7.47146 7.9375 7.64827V11.6483ZM10.6042 11.6483C10.6042 11.8251 10.5339 11.9947 10.4089 12.1197C10.2839 12.2447 10.1143 12.3149 9.9375 12.3149C9.76069 12.3149 9.59112 12.2447 9.4661 12.1197C9.34107 11.9947 9.27083 11.8251 9.27083 11.6483V7.64827C9.27083 7.47146 9.34107 7.30189 9.4661 7.17687C9.59112 7.05185 9.76069 6.98161 9.9375 6.98161C10.1143 6.98161 10.2839 7.05185 10.4089 7.17687C10.5339 7.30189 10.6042 7.47146 10.6042 7.64827V11.6483ZM6.0515 2.98161C6.18989 2.59194 6.44543 2.25462 6.78309 2.0159C7.12075 1.77719 7.52398 1.64878 7.9375 1.64827H9.27083C9.68435 1.64878 10.0876 1.77719 10.4252 2.0159C10.7629 2.25462 11.0184 2.59194 11.1568 2.98161H6.0515Z" fill="white"/>
</g>
<defs>
<clipPath id="clip0_27_4394">
<rect width="16" height="16" fill="white" transform="translate(0.604004 0.314941)"/>
</clipPath>
</defs>
</svg>
