<?xml version="1.0" encoding="UTF-8"?>
<svg id="Layer_2" data-name="Layer 2" xmlns="http://www.w3.org/2000/svg" viewBox="0 0 26.19 28.79">
  <defs>
    <style>
      .cls-1 {
        fill: #fff;
      }
    </style>
  </defs>
  <g id="Layer_1-2" data-name="Layer 1">
    <g>
      <path class="cls-1" d="m9.95,0c1.72.44,2.99,1.88,2.65,3.73-.3,1.63-1.92,2.79-3.56,2.54-1.55-.24-2.71-1.61-2.69-3.18.01-.75.29-1.48.79-2.04C7.69.44,8.33.31,9.05,0c.3,0,.6,0,.9,0Zm-.45,5.4c1.22,0,2.24-1.01,2.25-2.23.01-1.97-2.45-2.99-3.83-1.6-1.38,1.38-.38,3.83,1.58,3.83Z"/>
      <path class="cls-1" d="m17.15,0c1.72.44,2.99,1.88,2.65,3.73-.3,1.63-1.92,2.79-3.56,2.54-1.55-.24-2.71-1.61-2.69-3.18.01-.75.29-1.48.79-2.04.55-.62,1.19-.75,1.91-1.06.3,0,.6,0,.9,0Zm-.46,5.4c1.22,0,2.24-1.01,2.25-2.22.02-1.97-2.44-3-3.83-1.61-1.38,1.38-.39,3.83,1.58,3.83Z"/>
      <path class="cls-1" d="m11.28,28.79h-.86v-6.69c-.98-.25-1.86-.59-2.17-1.66-.34-1.16-.09-2.68-.09-3.88,0-1.11-.15-2.31.44-3.31.53-.91,1.34-1.24,2.29-1.54-1.82-2.01-.63-5.43,2.24-5.41,2.85.01,4.03,3.42,2.2,5.41,1.07.27,1.96.78,2.44,1.81.5,1.08.29,2.45.29,3.6,0,1.1.26,2.56-.2,3.59-.4.91-1.16,1.14-2.05,1.35v6.7h-.89v-8.5h.87v.85c1.3.04,1.35-1.22,1.36-2.17.01-1.2.02-2.4,0-3.59-.02-.95-.13-1.8-.99-2.37-.87-.58-2.08-.4-3.07-.4-.97,0-2.14-.18-3,.36-.92.58-1.04,1.52-1.04,2.52,0,1.23,0,2.46,0,3.69,0,.96.18,1.92,1.35,1.98v-.87h.88v8.52Zm1.82-17.09c1.22,0,2.24-1.01,2.25-2.23.02-1.97-2.45-3-3.83-1.61-1.38,1.38-.38,3.83,1.58,3.83Z"/>
      <path class="cls-1" d="m7.23,10.37c.77.14,1.4.46,1.92,1.03-.22.2-.43.39-.66.6-1.19-.99-2.62-.75-4.09-.75-1.23,0-2.53-.05-3.19,1.2-.3.57-.27,1.2-.27,1.82,0,.82,0,1.64,0,2.46,0,1.16-.28,2.95,1.35,3.06v-.87h.89v8.51h-.88v-6.71C-.54,20.47.05,17.25.05,15.21c0-1.11-.15-2.32.44-3.31.54-.92,1.34-1.19,2.28-1.54-1.16-1.3-1.27-3.3.05-4.54,1.24-1.17,3.23-1.13,4.43.07.93.94,1.44,2.83-.03,4.48Zm.02-2.27c0-1.23-1.03-2.25-2.26-2.25-1.97,0-2.95,2.48-1.56,3.85,1.38,1.36,3.83.36,3.82-1.6Z"/>
      <path class="cls-1" d="m23.42,10.37c1.08.19,2.01.85,2.46,1.86.48,1.09.25,2.47.25,3.63,0,1.86.42,4.71-2.23,4.85v6.72h-.88v-8.51h.87v.87c1.55-.08,1.36-1.67,1.36-2.79,0-.79,0-1.59,0-2.38,0-.69.07-1.44-.23-2.08-.59-1.26-1.86-1.28-3.07-1.28-1.39,0-3.18-.34-4.24.76-.23-.2-.45-.4-.68-.6.53-.58,1.16-.9,1.94-1.04-1.17-1.26-1.29-3.22-.04-4.48,1.19-1.19,3.14-1.24,4.38-.11,1.05.95,1.59,2.92.09,4.6Zm-4.48-2.26c0,1.23,1.04,2.25,2.27,2.24,1.97-.01,2.94-2.47,1.56-3.84-1.39-1.37-3.83-.36-3.82,1.6Z"/>
      <path class="cls-1" d="m6.82,18.91h.86v8.51h-.86v-8.51Z"/>
      <path class="cls-1" d="m18.52,18.91h.86v8.52h-.86v-8.52Z"/>
      <path class="cls-1" d="m5.43,27.43h-.86v-5.81h.86v5.81Z"/>
      <path class="cls-1" d="m20.77,21.61h.86v5.82h-.86v-5.82Z"/>
      <path class="cls-1" d="m13.53,28.78h-.86v-5.82h.86v5.82Z"/>
    </g>
  </g>
</svg>